<?xml version="1.0" standalone="no"?>
<!DOCTYPE svg PUBLIC "-//W3C//DTD SVG 20010904//EN"
 "http://www.w3.org/TR/2001/REC-SVG-20010904/DTD/svg10.dtd">
<svg version="1.0" xmlns="http://www.w3.org/2000/svg"
 width="920.000000pt" height="920.000000pt" viewBox="0 0 920.000000 920.000000"
 preserveAspectRatio="xMidYMid meet">

<g transform="translate(0.000000,920.000000) scale(0.100000,-0.100000)"
fill="#000000" stroke="none">
<path d="M1250 5800 c-14 -5 -79 -25 -145 -45 -66 -20 -124 -41 -130 -47 -7
-7 76 -94 250 -264 l260 -253 252 251 c139 139 250 255 247 259 -6 10 -157 63
-241 85 l-72 18 -96 -94 -96 -94 -97 97 c-54 53 -100 97 -102 96 -3 0 -16 -4
-30 -9z"/>
<path d="M780 5605 c-36 -24 -85 -64 -109 -89 l-45 -46 90 -92 c49 -51 239
-247 423 -436 l334 -343 -174 -177 c-174 -177 -401 -411 -579 -595 l-94 -97
30 -31 c38 -41 188 -149 206 -149 8 0 146 135 307 300 161 165 298 300 304
300 6 0 99 -87 206 -193 256 -253 400 -391 412 -395 11 -4 172 114 211 155
l28 29 -425 424 c-234 233 -425 427 -425 431 0 4 191 197 425 430 l425 423
-27 29 c-40 41 -201 159 -212 155 -12 -4 -157 -143 -412 -395 -107 -106 -200
-193 -206 -193 -6 0 -143 135 -304 300 -161 165 -300 300 -309 300 -8 0 -44
-20 -80 -45z"/>
<path d="M528 5373 c-26 -30 -136 -202 -143 -224 -6 -17 8 -37 72 -103 340
-351 413 -428 413 -440 0 -4 -110 -120 -245 -259 -135 -138 -245 -257 -245
-263 0 -20 50 -106 105 -181 l54 -74 34 33 c19 18 194 193 391 387 l356 355
-237 241 c-131 132 -306 309 -388 393 -142 145 -152 152 -167 135z"/>
<path d="M2025 4990 c-214 -208 -390 -383 -390 -388 0 -12 754 -782 766 -782
9 0 128 169 153 218 l18 34 -149 151 c-81 84 -195 200 -252 259 l-104 106 249
256 c137 141 250 263 252 271 4 18 -44 105 -106 193 -24 34 -44 62 -45 62 -1
0 -177 -171 -392 -380z"/>
<path d="M7130 5174 c-200 -33 -307 -99 -363 -222 -31 -69 -30 -198 1 -267 52
-112 126 -158 363 -223 178 -49 213 -63 235 -97 13 -20 15 -31 6 -50 -19 -41
-56 -58 -130 -58 -86 0 -128 21 -151 74 l-16 39 -177 0 -177 0 6 -37 c25 -163
148 -286 325 -328 36 -8 112 -15 179 -15 193 0 328 46 414 142 59 66 80 130
79 243 -1 97 -14 139 -60 194 -61 73 -134 106 -358 165 -189 50 -226 75 -204
137 12 34 46 49 109 49 67 0 113 -23 134 -66 l16 -34 169 0 c139 0 170 3 170
14 0 8 -9 43 -20 79 -35 114 -140 206 -272 241 -58 15 -233 28 -278 20z"/>
<path d="M3248 4586 l-3 -566 183 0 182 0 0 169 0 168 163 6 c207 7 294 31
380 106 140 124 141 431 2 560 -108 99 -169 112 -577 118 l-328 5 -2 -566z
m625 261 c43 -28 54 -112 22 -163 -19 -29 -85 -44 -194 -44 l-91 0 0 116 0
116 119 -4 c89 -3 125 -8 144 -21z"/>
<path d="M4408 5144 c-5 -4 -8 -259 -8 -566 l0 -558 291 0 c159 0 323 5 362
11 211 32 363 186 404 411 17 95 12 260 -11 345 -48 180 -174 307 -342 344
-58 12 -686 25 -696 13z m555 -295 c98 -27 137 -105 137 -275 0 -202 -49 -259
-235 -271 l-95 -6 0 281 0 282 78 0 c42 0 94 -5 115 -11z"/>
<path d="M5535 5133 c4 -10 67 -198 141 -418 74 -220 157 -465 184 -545 l49
-145 182 0 183 0 54 160 c62 183 306 909 316 943 l7 22 -177 -2 -178 -3 -29
-100 c-15 -55 -61 -217 -101 -360 -41 -143 -76 -253 -79 -245 -5 14 -158 599
-175 670 l-8 35 -188 3 c-177 2 -188 1 -181 -15z"/>
<path d="M8175 5138 c-2 -7 -75 -213 -161 -458 -85 -245 -173 -493 -193 -552
l-38 -108 178 0 178 0 22 75 22 75 180 -2 181 -3 19 -72 20 -73 179 0 c98 0
178 2 178 5 0 2 -38 111 -84 242 -46 131 -134 383 -197 561 l-113 322 -183 0
c-138 0 -185 -3 -188 -12z m244 -533 c28 -99 51 -186 51 -193 0 -9 -30 -12
-110 -12 -60 0 -110 3 -110 6 0 5 50 177 106 367 3 10 7 17 9 15 1 -2 26 -84
54 -183z"/>
<path d="M320 5005 c-36 -93 -64 -311 -57 -450 4 -91 48 -338 63 -354 5 -6
409 389 411 402 1 7 -90 106 -202 222 l-204 210 -11 -30z"/>
<path d="M2408 4802 l-207 -207 204 -210 c112 -115 206 -207 210 -203 13 13
54 180 64 265 14 111 14 210 0 310 -10 79 -47 232 -58 245 -4 4 -100 -86 -213
-200z"/>
<path d="M1228 3754 c-142 -140 -258 -257 -258 -259 0 -3 21 -15 48 -29 49
-25 120 -47 211 -65 l55 -12 98 98 98 98 95 -95 95 -94 72 18 c85 22 236 75
242 85 3 4 -108 120 -247 259 l-252 251 -257 -255z"/>
</g>
</svg>
